<svg xmlns="http://www.w3.org/2000/svg" viewBox="0 0 80 90" fill="none">
  <!-- White petals (12) -->
  <g opacity="0.95">
    <ellipse cx="40" cy="24" rx="5" ry="14" fill="white" transform="rotate(0 40 40)"/>
    <ellipse cx="40" cy="24" rx="5" ry="14" fill="#f9f0f0" transform="rotate(30 40 40)"/>
    <ellipse cx="40" cy="24" rx="5" ry="14" fill="white" transform="rotate(60 40 40)"/>
    <ellipse cx="40" cy="24" rx="5" ry="14" fill="#f9f0f0" transform="rotate(90 40 40)"/>
    <ellipse cx="40" cy="24" rx="5" ry="14" fill="white" transform="rotate(120 40 40)"/>
    <ellipse cx="40" cy="24" rx="5" ry="14" fill="#f9f0f0" transform="rotate(150 40 40)"/>
    <ellipse cx="40" cy="24" rx="5" ry="14" fill="white" transform="rotate(180 40 40)"/>
    <ellipse cx="40" cy="24" rx="5" ry="14" fill="#f9f0f0" transform="rotate(210 40 40)"/>
    <ellipse cx="40" cy="24" rx="5" ry="14" fill="white" transform="rotate(240 40 40)"/>
    <ellipse cx="40" cy="24" rx="5" ry="14" fill="#f9f0f0" transform="rotate(270 40 40)"/>
    <ellipse cx="40" cy="24" rx="5" ry="14" fill="white" transform="rotate(300 40 40)"/>
    <ellipse cx="40" cy="24" rx="5" ry="14" fill="#f9f0f0" transform="rotate(330 40 40)"/>
  </g>
  <!-- Yellow center -->
  <circle cx="40" cy="40" r="9" fill="#f5c842"/>
  <circle cx="40" cy="40" r="5.5" fill="#d4a017"/>
  <!-- Stem -->
  <path d="M40 49 Q39 62 37 76" stroke="#8aac8a" stroke-width="2.5" stroke-linecap="round" fill="none"/>
  <path d="M39 63 Q28 58 30 50 Q36 55 39 63Z" fill="#8aac8a" opacity="0.8"/>
</svg>
