<svg xmlns="http://www.w3.org/2000/svg" viewBox="0 0 80 90" fill="none">
  <path d="M40 58 Q38 70 36 78" stroke="#8aaa8a" stroke-width="2" stroke-linecap="round"/>
  <path d="M38 66 Q28 60 30 53 Q36 57 38 66Z" fill="#8aaa8a" opacity="0.8"/>
  <ellipse cx="40" cy="26" rx="7" ry="22" fill="#f4a0c0" opacity="0.92" transform="rotate(0 40 40)"/>
  <ellipse cx="40" cy="26" rx="7" ry="22" fill="#ec8aad" opacity="0.88" transform="rotate(40 40 40)"/>
  <ellipse cx="40" cy="26" rx="7" ry="22" fill="#f4a0c0" opacity="0.92" transform="rotate(80 40 40)"/>
  <ellipse cx="40" cy="26" rx="7" ry="22" fill="#ec8aad" opacity="0.88" transform="rotate(120 40 40)"/>
  <ellipse cx="40" cy="26" rx="7" ry="22" fill="#f4a0c0" opacity="0.92" transform="rotate(160 40 40)"/>
  <ellipse cx="40" cy="26" rx="7" ry="22" fill="#ec8aad" opacity="0.88" transform="rotate(200 40 40)"/>
  <ellipse cx="40" cy="26" rx="7" ry="22" fill="#f4a0c0" opacity="0.92" transform="rotate(240 40 40)"/>
  <ellipse cx="40" cy="26" rx="7" ry="22" fill="#ec8aad" opacity="0.88" transform="rotate(280 40 40)"/>
  <ellipse cx="40" cy="26" rx="7" ry="22" fill="#f4a0c0" opacity="0.92" transform="rotate(320 40 40)"/>
  <circle cx="40" cy="40" r="8" fill="#f5d77a"/>
  <circle cx="40" cy="40" r="4" fill="#d4a030"/>
</svg>
