<svg xmlns="http://www.w3.org/2000/svg" viewBox="0 0 60 100" fill="none">
  <!-- Eucalyptus branch with oval leaves -->
  <path d="M30 8 Q32 30 30 95" stroke="#8aaa8a" stroke-width="2" stroke-linecap="round"/>
  <!-- Pairs of opposite leaves -->
  <ellipse cx="21" cy="22" rx="9" ry="5" fill="#9ab89a" opacity="0.88" transform="rotate(-35 21 22)"/>
  <ellipse cx="39" cy="22" rx="9" ry="5" fill="#7a9a7a" opacity="0.85" transform="rotate(35 39 22)"/>
  <ellipse cx="19" cy="36" rx="9" ry="5" fill="#9ab89a" opacity="0.88" transform="rotate(-30 19 36)"/>
  <ellipse cx="41" cy="36" rx="9" ry="5" fill="#7a9a7a" opacity="0.85" transform="rotate(30 41 36)"/>
  <ellipse cx="20" cy="50" rx="9" ry="5" fill="#9ab89a" opacity="0.85" transform="rotate(-28 20 50)"/>
  <ellipse cx="40" cy="50" rx="9" ry="5" fill="#7a9a7a" opacity="0.82" transform="rotate(28 40 50)"/>
  <ellipse cx="21" cy="64" rx="9" ry="5" fill="#9ab89a" opacity="0.82" transform="rotate(-25 21 64)"/>
  <ellipse cx="39" cy="64" rx="9" ry="5" fill="#7a9a7a" opacity="0.8" transform="rotate(25 39 64)"/>
  <ellipse cx="22" cy="78" rx="8" ry="4" fill="#9ab89a" opacity="0.78" transform="rotate(-22 22 78)"/>
  <ellipse cx="38" cy="78" rx="8" ry="4" fill="#7a9a7a" opacity="0.75" transform="rotate(22 38 78)"/>
</svg>
