<svg xmlns="http://www.w3.org/2000/svg" viewBox="0 0 70 100" fill="none">
  <!-- Fern frond: central stem with pinnate leaves -->
  <path d="M35 95 Q36 60 35 10" stroke="#7aaa6a" stroke-width="2" stroke-linecap="round"/>
  <!-- Left pinnae -->
  <path d="M35 20 Q22 16 18 22 Q24 24 35 20Z" fill="#8aba78" opacity="0.85"/>
  <path d="M35 30 Q20 24 15 30 Q22 34 35 30Z" fill="#7aaa6a" opacity="0.88"/>
  <path d="M35 40 Q19 34 14 42 Q22 44 35 40Z" fill="#8aba78" opacity="0.85"/>
  <path d="M35 50 Q19 46 15 52 Q22 56 35 50Z" fill="#7aaa6a" opacity="0.82"/>
  <path d="M35 60 Q20 56 16 62 Q23 66 35 60Z" fill="#8aba78" opacity="0.8"/>
  <path d="M35 70 Q21 66 18 72 Q24 76 35 70Z" fill="#7aaa6a" opacity="0.75"/>
  <!-- Right pinnae -->
  <path d="M35 20 Q48 16 52 22 Q46 24 35 20Z" fill="#8aba78" opacity="0.85"/>
  <path d="M35 30 Q50 24 55 30 Q48 34 35 30Z" fill="#7aaa6a" opacity="0.88"/>
  <path d="M35 40 Q51 34 56 42 Q48 44 35 40Z" fill="#8aba78" opacity="0.85"/>
  <path d="M35 50 Q51 46 55 52 Q48 56 35 50Z" fill="#7aaa6a" opacity="0.82"/>
  <path d="M35 60 Q50 56 54 62 Q47 66 35 60Z" fill="#8aba78" opacity="0.8"/>
  <path d="M35 70 Q49 66 52 72 Q46 76 35 70Z" fill="#7aaa6a" opacity="0.75"/>
</svg>
