<svg xmlns="http://www.w3.org/2000/svg" viewBox="0 0 80 100" fill="none">
  <path d="M40 55 Q38 72 36 82" stroke="#5a7a5a" stroke-width="2.5" stroke-linecap="round"/>
  <path d="M38 65 Q26 58 28 50 Q35 54 38 65Z" fill="#5a7a5a" opacity="0.8"/>
  <ellipse cx="40" cy="22" rx="10" ry="17" fill="#8b2040" opacity="0.9" transform="rotate(0 40 38)"/>
  <ellipse cx="40" cy="22" rx="10" ry="17" fill="#6d1030" opacity="0.85" transform="rotate(51 40 38)"/>
  <ellipse cx="40" cy="22" rx="10" ry="17" fill="#8b2040" opacity="0.9" transform="rotate(102 40 38)"/>
  <ellipse cx="40" cy="22" rx="10" ry="17" fill="#6d1030" opacity="0.85" transform="rotate(153 40 38)"/>
  <ellipse cx="40" cy="22" rx="10" ry="17" fill="#8b2040" opacity="0.9" transform="rotate(204 40 38)"/>
  <ellipse cx="40" cy="22" rx="10" ry="17" fill="#6d1030" opacity="0.85" transform="rotate(255 40 38)"/>
  <ellipse cx="40" cy="22" rx="10" ry="17" fill="#8b2040" opacity="0.9" transform="rotate(306 40 38)"/>
  <circle cx="40" cy="38" r="9" fill="#a83050"/>
  <circle cx="40" cy="38" r="5" fill="#4a0820"/>
</svg>
