<svg xmlns="http://www.w3.org/2000/svg" viewBox="0 0 80 80" fill="none">
  <!-- Petals -->
  <ellipse cx="40" cy="22" rx="9" ry="16" fill="#e8a0a0" opacity="0.9" transform="rotate(0 40 40)"/>
  <ellipse cx="40" cy="22" rx="9" ry="16" fill="#d4889a" opacity="0.85" transform="rotate(45 40 40)"/>
  <ellipse cx="40" cy="22" rx="9" ry="16" fill="#e8a0a0" opacity="0.9" transform="rotate(90 40 40)"/>
  <ellipse cx="40" cy="22" rx="9" ry="16" fill="#d4889a" opacity="0.85" transform="rotate(135 40 40)"/>
  <ellipse cx="40" cy="22" rx="9" ry="16" fill="#e8a0a0" opacity="0.9" transform="rotate(180 40 40)"/>
  <ellipse cx="40" cy="22" rx="9" ry="16" fill="#d4889a" opacity="0.85" transform="rotate(225 40 40)"/>
  <ellipse cx="40" cy="22" rx="9" ry="16" fill="#e8a0a0" opacity="0.9" transform="rotate(270 40 40)"/>
  <ellipse cx="40" cy="22" rx="9" ry="16" fill="#d4889a" opacity="0.85" transform="rotate(315 40 40)"/>
  <!-- Center -->
  <circle cx="40" cy="40" r="10" fill="#c8a96e" opacity="0.95"/>
  <circle cx="40" cy="40" r="6" fill="#8b5e3c" opacity="0.7"/>
  <!-- Stem -->
  <path d="M40 50 Q38 62 36 72" stroke="#8aac8a" stroke-width="2.5" stroke-linecap="round" fill="none"/>
  <!-- Leaf -->
  <path d="M38 60 Q28 55 30 48 Q36 52 38 60Z" fill="#8aac8a" opacity="0.8"/>
</svg>
