<svg xmlns="http://www.w3.org/2000/svg" viewBox="0 0 200 200" width="200" height="200">
  <defs>
    <!-- Sticker white border and soft shadow -->
    <filter id="sticker-shadow" x="-20%" y="-20%" width="140%" height="140%">
      <feDropShadow dx="2" dy="4" stdDeviation="4" flood-color="#000000" flood-opacity="0.1"/>
    </filter>
  </defs>

  <g filter="url(#sticker-shadow)">
    <!-- White die-cut border base -->
    <path d="M 60 40 
             C 40 10, 10 30, 30 70 
             C 10 90, 10 130, 40 160 
             C 70 190, 130 190, 160 160 
             C 190 130, 190 90, 170 70 
             C 190 30, 160 10, 140 40 
             C 120 20, 80 20, 60 40 Z" 
          fill="#ffffff" stroke="#ffffff" stroke-width="12" stroke-linejoin="round"/>
    
    <!-- Axolotl Body -->
    <path d="M 50 140 C 50 180, 150 180, 150 140 C 150 90, 50 90, 50 140 Z" fill="#ffb6c1"/>
    
    <!-- Head -->
    <ellipse cx="100" cy="110" rx="50" ry="40" fill="#ffb6c1"/>
    
    <!-- Left Gills -->
    <path d="M 55 90 C 30 70, 20 80, 45 100 Z" fill="#ff69b4" rx="5"/>
    <path d="M 50 105 C 20 100, 15 115, 45 115 Z" fill="#ff69b4"/>
    <path d="M 52 120 C 25 125, 25 140, 55 130 Z" fill="#ff69b4"/>
    
    <!-- Right Gills -->
    <path d="M 145 90 C 170 70, 180 80, 155 100 Z" fill="#ff69b4"/>
    <path d="M 150 105 C 180 100, 185 115, 155 115 Z" fill="#ff69b4"/>
    <path d="M 148 120 C 175 125, 175 140, 145 130 Z" fill="#ff69b4"/>
    
    <!-- Eyes -->
    <circle cx="80" cy="105" r="5" fill="#4a4a4a"/>
    <circle cx="120" cy="105" r="5" fill="#4a4a4a"/>
    
    <!-- Blush -->
    <ellipse cx="70" cy="115" rx="8" ry="4" fill="#ff99cc" opacity="0.6"/>
    <ellipse cx="130" cy="115" rx="8" ry="4" fill="#ff99cc" opacity="0.6"/>
    
    <!-- Smile -->
    <path d="M 90 115 Q 100 125 110 115" fill="none" stroke="#4a4a4a" stroke-width="2.5" stroke-linecap="round"/>
  </g>
</svg>
